<?xml version="1.0" ?><svg enable-background="new 0 0 64 64" version="1.1" viewBox="0 0 64 64" xml:space="preserve" xmlns="http://www.w3.org/2000/svg" xmlns:xlink="http://www.w3.org/1999/xlink"><g id="Layer_1"/><g id="icon"><g><path d="M25.091,30.469H11.81c-2.098,0-3.804-1.706-3.804-3.804V13.384c0-2.098,1.706-3.804,3.804-3.804h13.281    c2.098,0,3.804,1.706,3.804,3.804v13.281C28.895,28.763,27.189,30.469,25.091,30.469z M11.81,11.58    c-0.994,0-1.804,0.81-1.804,1.804v13.281c0,0.994,0.81,1.804,1.804,1.804h13.281c0.994,0,1.804-0.81,1.804-1.804V13.384    c0-0.994-0.81-1.804-1.804-1.804H11.81z"/></g><g><path d="M45.549,30.469c-5.759,0-10.444-4.686-10.444-10.444S39.791,9.58,45.549,9.58s10.444,4.686,10.444,10.444    S51.308,30.469,45.549,30.469z M45.549,11.58c-4.656,0-8.444,3.788-8.444,8.444s3.788,8.444,8.444,8.444s8.444-3.788,8.444-8.444    S50.206,11.58,45.549,11.58z"/></g><g><path d="M18.451,54.42c-5.759,0-10.444-4.686-10.444-10.444s4.686-10.444,10.444-10.444s10.444,4.686,10.444,10.444    S24.21,54.42,18.451,54.42z M18.451,35.531c-4.656,0-8.444,3.788-8.444,8.444s3.788,8.444,8.444,8.444s8.444-3.788,8.444-8.444    S23.107,35.531,18.451,35.531z"/></g><g><path d="M52.19,54.42H38.909c-2.098,0-3.804-1.706-3.804-3.804V37.335c0-2.098,1.706-3.804,3.804-3.804H52.19    c2.098,0,3.804,1.706,3.804,3.804v13.281C55.994,52.714,54.288,54.42,52.19,54.42z M38.909,35.531    c-0.994,0-1.804,0.81-1.804,1.804v13.281c0,0.994,0.81,1.804,1.804,1.804H52.19c0.994,0,1.804-0.81,1.804-1.804V37.335    c0-0.994-0.81-1.804-1.804-1.804H38.909z"/></g></g></svg>